<svg xmlns="http://www.w3.org/2000/svg" id = "helpIcon" viewBox="0 0 30 30" style="fill: #c3d4e3;"><title>help_icon@1x</title><g id="art"><path d="M14.93177.8a14,14,0,1,0,14,14A14.00007,14.00007,0,0,0,14.93177.8ZM15.08,26.28a3.3831,3.3831,0,0,1-3.12-3.32,3.16427,3.16427,0,0,1,6.32,0A3.45462,3.45462,0,0,1,15.08,26.28Zm4.3907-11.19012s-1.80471.99409-1.92478,2.19483L17.45641,19H12.97336l.0625-2.608c0-1.36218,1.26788-2.709,2.81881-3.4845s1.78023-1.64744,1.78023-2.13618c0-1.25136-.515-2.14191-2.75-2.14191-2.25452,0-3.92788,2.46187-3.92788,2.46187L8.353,7.2554l.43716-.38864a9.34414,9.34414,0,0,1,6.63418-2.70729c4.56893,0,7.15775,3.23,7.15775,6.02075A5.79127,5.79127,0,0,1,19.4707,15.08988Z"/></g></svg>
