<svg xmlns="http://www.w3.org/2000/svg" viewBox="0 0 30 30"><title>calendar_icon@1x</title><g id="art"><path d="M21,26H8a4.00455,4.00455,0,0,1-4-4V8A4.00455,4.00455,0,0,1,8,4H21a4.00455,4.00455,0,0,1,4,4V22A4.00455,4.00455,0,0,1,21,26ZM8,6A2.00228,2.00228,0,0,0,6,8V22a2.00228,2.00228,0,0,0,2,2H21a2.00228,2.00228,0,0,0,2-2V8a2.00228,2.00228,0,0,0-2-2Zm12,7H9a1,1,0,0,1-1-1V9A1,1,0,0,1,9,8H20a1,1,0,0,1,1,1v3A1,1,0,0,1,20,13ZM10,11h9V10H10Zm1,4H8v2h3Zm5,0H13v2h3Zm5,0H18v2h3ZM11,19H8v2h3Zm5,0H13v2h3Zm5,0H18v2h3Z"/></g></svg>