<svg xmlns="http://www.w3.org/2000/svg" viewBox="0 0 60 60"><title>Corrus_Icons_Master</title><g id="art"><path d="M16.255,17.03369a.902.902,0,0,0-.79578,1.34267L26.91439,44.96093a.9852.9852,0,0,0,.91895.58936,1.00363,1.00363,0,0,0,.39453-.08984c.50781-.21826.7417-.56055.52344-1.06787L23.32406,32.03369H34.03575L32.82892,33.978a1.44427,1.44427,0,0,0-.09424,1.27539c.16895.33887.51563.78027.89453.78027H48.1888c.35254,0,.67969-.49854.85938-.80225a1.68129,1.68129,0,0,0,.01855-1.30176l-6-10.6875c-.17578-.32129-.51221-.2085-.87793-.2085h-8.501l-2.58984-5.541a.90073.90073,0,0,0-.90918-.459Zm6.20774,13-4.73584-11H29.54622l5.08594,11Zm12.72607,4,1.84082-2.83447a.771.771,0,0,0,.06836-.83154l-2.49561-5.334h6.99268l4.90918,9Z"/></g><style type="text/css"> svg{fill:#29c4ff}</style></svg>