
<svg xmlns="http://www.w3.org/2000/svg" viewBox="0 0 30 30"><title>double_carrot_icon@1x</title><g id="art"><path d="M15,28.5a1.49485,1.49485,0,0,1-1.06055-.43933l-7.0769-7.0769a1.49993,1.49993,0,1,1,2.12109-2.12134L15,24.87866l6.01636-6.01624a1.49993,1.49993,0,0,1,2.12109,2.12134l-7.0769,7.0769A1.49485,1.49485,0,0,1,15,28.5Z"/><path d="M22.0769,11.5769a1.49485,1.49485,0,0,1-1.06055-.43933L15,5.12134,8.98364,11.13757A1.49993,1.49993,0,0,1,6.86255,9.01624l7.0769-7.0769a1.49967,1.49967,0,0,1,2.12109,0l7.0769,7.0769A1.5,1.5,0,0,1,22.0769,11.5769Z"/></g>
<style>
    svg{fill:#bac8d6}
</style>
</svg>
