<svg xmlns="http://www.w3.org/2000/svg" viewBox="0 0 30 30"><title>x_in_circle_icon</title><g id="art"><path d="M25.12867,5.2005a13.99983,13.99983,0,1,0,0,19.79851A13.99826,13.99826,0,0,0,25.12867,5.2005ZM20.72139,22.4996a2.1358,2.1358,0,0,1-1.52051-.62946l-3.85059-3.85055-3.85107,3.85049a2.14983,2.14983,0,0,1-3.04-3.04059l3.85034-3.85107L8.45918,11.12786a2.14969,2.14969,0,1,1,3.04-3.04019l3.85107,3.8505,3.85108-3.85044a2.14971,2.14971,0,0,1,3.04016,3.04013l-3.8512,3.85056,3.8512,3.851a2.1498,2.1498,0,0,1-1.52014,3.67014Z"/></g></svg>